<svg xmlns="http://www.w3.org/2000/svg" xmlns:xlink="http://www.w3.org/1999/xlink" width="250" zoomAndPan="magnify" viewBox="0 0 187.5 44.999999" height="60" preserveAspectRatio="xMidYMid meet" version="1.0"><defs><g/><clipPath id="fd86e98c62"><path d="M 0 0.0585938 L 187 0.0585938 L 187 44.9375 L 0 44.9375 Z M 0 0.0585938 " clip-rule="nonzero"/></clipPath><clipPath id="dafc5efb9b"><path d="M 2.992188 3.632812 L 70.871094 3.632812 L 70.871094 40.453125 L 2.992188 40.453125 Z M 2.992188 3.632812 " clip-rule="nonzero"/></clipPath></defs><g clip-path="url(#fd86e98c62)"><path fill="#ffffff" d="M 0 0.0585938 L 187 0.0585938 L 187 44.941406 L 0 44.941406 Z M 0 0.0585938 " fill-opacity="1" fill-rule="nonzero"/><path fill="#ffffff" d="M 0 0.0585938 L 187 0.0585938 L 187 44.941406 L 0 44.941406 Z M 0 0.0585938 " fill-opacity="1" fill-rule="nonzero"/></g><g clip-path="url(#dafc5efb9b)"><path fill="#4285f4" d="M 2.992188 3.632812 L 70.878906 3.632812 L 70.878906 40.453125 L 2.992188 40.453125 Z M 2.992188 3.632812 " fill-opacity="1" fill-rule="nonzero"/></g><g fill="#ffffff" fill-opacity="1"><g transform="translate(6.141842, 42.279032)"><g><path d="M 32.609375 0 L 30.90625 -21.5 L 30.671875 -21.5 L 23.25 -0.21875 L 18.328125 -0.21875 L 10.90625 -21.5 L 10.6875 -21.5 L 8.96875 0 L 0.703125 0 L 3.953125 -36.265625 L 12.75 -36.265625 L 20.796875 -15.34375 L 28.828125 -36.265625 L 37.625 -36.265625 L 40.875 0 Z M 32.609375 0 "/></g></g></g><g fill="#ffffff" fill-opacity="1"><g transform="translate(47.713069, 42.279032)"><g><path d="M 4.765625 -2.671875 C 2.265625 -4.898438 1.015625 -7.757812 1.015625 -11.25 C 1.015625 -14.738281 2.316406 -17.601562 4.921875 -19.84375 C 7.523438 -22.082031 10.75 -23.203125 14.59375 -23.203125 C 18.375 -23.203125 21.5625 -22.070312 24.15625 -19.8125 C 26.75 -17.5625 28.046875 -14.707031 28.046875 -11.25 C 28.046875 -7.789062 26.773438 -4.941406 24.234375 -2.703125 C 21.703125 -0.460938 18.488281 0.65625 14.59375 0.65625 C 10.550781 0.65625 7.273438 -0.453125 4.765625 -2.671875 Z M 10.796875 -15.078125 C 9.785156 -14.078125 9.28125 -12.800781 9.28125 -11.25 C 9.28125 -9.695312 9.757812 -8.429688 10.71875 -7.453125 C 11.6875 -6.472656 12.960938 -5.984375 14.546875 -5.984375 C 16.066406 -5.984375 17.316406 -6.476562 18.296875 -7.46875 C 19.285156 -8.46875 19.78125 -9.726562 19.78125 -11.25 C 19.78125 -12.800781 19.273438 -14.078125 18.265625 -15.078125 C 17.253906 -16.078125 16.015625 -16.578125 14.546875 -16.578125 C 13.054688 -16.578125 11.804688 -16.078125 10.796875 -15.078125 Z M 10.796875 -15.078125 "/></g></g></g><g fill="#4285f4" fill-opacity="1"><g transform="translate(71.820669, 37.074945)"><g><path d="M 20.546875 -25.859375 L 23.453125 -25.859375 L 23.453125 0.40625 L 23.3125 0.40625 L 5.625 -19.234375 L 5.625 0.03125 L 2.71875 0.03125 L 2.71875 -26.1875 L 2.875 -26.1875 L 20.546875 -6.578125 Z M 20.546875 -25.859375 "/></g></g></g><g fill="#4285f4" fill-opacity="1"><g transform="translate(97.982817, 37.074945)"><g><path d="M 21.421875 0 L 19.53125 -4.234375 L 5.453125 -4.234375 L 3.5625 0 L 0.421875 0 L 12.328125 -26.1875 L 12.65625 -26.1875 L 24.59375 0 Z M 6.59375 -6.765625 L 18.421875 -6.765625 L 12.515625 -20.03125 Z M 6.59375 -6.765625 "/></g></g></g><g fill="#4285f4" fill-opacity="1"><g transform="translate(122.961592, 37.074945)"><g><path d="M 21.421875 0 L 19.53125 -4.234375 L 5.453125 -4.234375 L 3.5625 0 L 0.421875 0 L 12.328125 -26.1875 L 12.65625 -26.1875 L 24.59375 0 Z M 6.59375 -6.765625 L 18.421875 -6.765625 L 12.515625 -20.03125 Z M 6.59375 -6.765625 "/></g></g></g><g fill="#4285f4" fill-opacity="1"><g transform="translate(147.940367, 37.074945)"><g><path d="M 27.65625 -26.265625 L 27.984375 -26.265625 L 27.984375 0 L 25.0625 0 L 25.0625 -17.5 L 15.375 -0.4375 L 15.34375 -0.4375 L 5.625 -17.53125 L 5.625 0 L 2.71875 0 L 2.71875 -26.265625 L 3.0625 -26.265625 L 15.359375 -5.765625 Z M 27.65625 -26.265625 "/></g></g></g><g fill="#4285f4" fill-opacity="1"><g transform="translate(178.628126, 37.074945)"><g><path d="M 2.71875 0 L 2.71875 -25.796875 L 5.625 -25.796875 L 5.625 0 Z M 2.71875 0 "/></g></g></g></svg>